This is my own rip.

There is a continuous logo, but I'm uploading this because of a request.
Download the sample to see if the logo is a problem for you.

General
Unique ID                        : 227894060299639764303249458606663220050 (0xAB72CCAB3D4CA559BABA21BA502F3B52)
Format                           : Matroska
Format version                   : Version 4 / Version 2
File size                        : 1.97 GiB
Duration                         : 1h 36mn
Overall bit rate mode            : Variable
Overall bit rate                 : 2 932 Kbps
Encoded date                     : UTC 2013-02-15 01:26:58
Writing application              : mkvmerge v6.0.0 ('Coming Up For Air') built on Jan 20 2013 09:52:00
Writing library                  : libebml v1.3.0 + libmatroska v1.4.0

Video
ID                               : 1
Format                           : AVC
Format/Info                      : Advanced Video Codec
Format profile                   : High@L4.1
Format settings, CABAC           : Yes
Format settings, ReFrames        : 7 frames
Codec ID                         : V_MPEG4/ISO/AVC
Duration                         : 1h 36mn
Bit rate mode                    : Variable
Bit rate                         : 2 489 Kbps
Maximum bit rate                 : 11.1 Mbps
Width                            : 1 280 pixels
Height                           : 696 pixels
Display aspect ratio             : 16:9
Frame rate                       : 23.976 fps
Color space                      : YUV
Chroma subsampling               : 4:2:0
Bit depth                        : 8 bits
Scan type                        : Progressive
Bits/(Pixel*Frame)               : 0.117
Stream size                      : 1.67 GiB (85%)
Writing library                  : x264 core 129 r2230 1cffe9f
Language                         : English
Default                          : Yes
Forced                           : No

Audio
ID                               : 2
Format                           : AC-3
Format/Info                      : Audio Coding 3
Format profile                   : Dolby Digital
Mode extension                   : CM (complete main)
Codec ID                         : A_AC3
Duration                         : 1h 36mn
Bit rate mode                    : Constant
Bit rate                         : 384 Kbps
Channel(s)                       : 2 channels
Channel positions                : Front: L R
Sampling rate                    : 48.0 KHz
Bit depth                        : 16 bits
Compression mode                 : Lossy
Stream size                      : 264 MiB (13%)
Language                         : English
Default                          : Yes
Forced                           : No

Menu
00:00:00.000                     : Main Title/Cable
00:05:47.013                     : Character Issues
00:12:37.340                     : Obsessed With Laura
00:18:33.070                     : Ashford Falls
00:24:20.084                     : Mistaken Idenitity
00:29:28.058                     : Self-Made Hero
00:36:54.879                     : Janet
00:39:33.538                     : Fat Formula
00:48:14.725                     : Buying Rachel
00:55:43.529                     : The Real Jack Gates
01:01:37.110                     : Strange Power
01:06:05.253                     : Drunk Desires
01:12:36.602                     : The Old Switch
01:21:04.943                     : Risky Surgery
01:25:12.858                     : A Lotta Love
01:31:59.889                     : Epilogue
01:32:49.314                     : End Credits
